<svg width="68" height="43" viewBox="0 0 68 43" fill="none" xmlns="http://www.w3.org/2000/svg">
<rect width="68" height="42.6667" fill="#FF3B6E"/>
<path d="M30 5.59994C26.4 7.59994 25.3333 9.33327 25.3333 13.7333C25.3333 17.9999 28.1333 23.9999 31.3333 26.6666C33.0666 28.1333 33.8666 27.9999 36.2666 25.8666C40.1333 22.3999 42.9333 15.3333 41.8666 11.3333C41.4666 9.46661 39.3333 7.06661 37.2 5.99994C32.8 3.59994 33.3333 3.73328 30 5.59994Z" fill="white"/>
<path d="M5.46666 22.1333C3.86666 24.1333 2.66666 26.2666 2.66666 26.9333C2.66666 28.8 5.46666 33.8666 7.19999 34.9333C9.59999 36.6666 20.6667 36.1333 23.2 34.2666C25.4667 32.5333 25.4667 32.1333 23.4667 28.4C20.8 23.0666 15.2 18.6666 11.2 18.6666C9.59999 18.6666 6.93332 20.2666 5.46666 22.1333Z" fill="white"/>
<path d="M47.3333 23.1999C42.8 28.1332 40.8 32.7999 42.8 34.1332C43.4667 34.5332 47.3333 35.1999 51.2 35.5999C57.3333 36.2666 58.8 35.8666 61.2 33.4666C64.6667 29.9999 64.8 24.7999 61.3333 21.3332C57.3333 17.3332 52.2667 17.9999 47.3333 23.1999Z" fill="white"/>
</svg>
